# xmcd
#
# Track frame offsets:
#	150
#	13441
#	30191
#	43927
#	59802
#	74970
#	93071
#	108582
#	129941
#	147425
#	163455
#	179127
#	196803
#	213354
#	231251
#	250860
#	266061
#	284605
#
# Disc length: 4013
#
# Revision: 2
# Processed by: cddbd v1.5.1PL0 Copyright (c) Steve Scherf et al.
# Submitted via: audiograbber 1.82.01
# Normalized: r1:TDELIM( - )
#
DISCID=250fab12
DTITLE=Saloon Tunes 58 - 2003 January
DYEAR=2003
DGENRE=Country
TTITLE0=Daniels, Charlie Band and Travis Tritt - Southern Boy
TTITLE1=Cagle, Chris - What A Beautiful Day
TTITLE2=Tuftin, Dean - I'm Not So Little Anymore
TTITLE3=Diamond Rio - I Believe
TTITLE4=Stone, Doug - POW 369
TTITLE5=Hill, Faith - When The Lights Go Down
TTITLE6=Mathews, Jake - You Put Me Together Again
TTITLE7=Urban, Keith - Raining On Sunday
TTITLE8=McBride, Martina - Concrete Angel
TTITLE9=Wright, Michelle - I Will Be There
TTITLE10=Brandt, Paul - When You Call My Name
TTITLE11=Rascal Flatts - I Melt
TTITLE12=Tippe, Rick - I'd Do Anything
TTITLE13=Atkins, Rodney - My Old Man
TTITLE14=Hogan, Sean - Your Rocking Horse
TTITLE15=Holy, Steve - I'm Not Breaking
TTITLE16=McGraw, Tim - Red Rag Top
TTITLE17=Byrd, Tracy - Lately (Dreamin' Bout Babies)
EXTD=
EXTT0=
EXTT1=
EXTT2=
EXTT3=
EXTT4=
EXTT5=
EXTT6=
EXTT7=
EXTT8=
EXTT9=
EXTT10=
EXTT11=
EXTT12=
EXTT13=
EXTT14=
EXTT15=
EXTT16=
EXTT17=
PLAYORDER=
